<?xml version="1.0" encoding="utf-8"?>
<!-- Generator: Adobe Illustrator 23.0.3, SVG Export Plug-In . SVG Version: 6.00 Build 0)  -->
<svg version="1.0" id="Layer_1" xmlns="http://www.w3.org/2000/svg" xmlns:xlink="http://www.w3.org/1999/xlink" x="0px" y="0px"
	 width="22px" height="21.99998px" viewBox="0 0 22 21.99998" enable-background="new 0 0 22 21.99998" xml:space="preserve">
<g id="JACKS">
	<g>
		<g id="layer1_2_" transform="translate(-88.611154,-119.19859)">
			<g>
				<circle fill="#BABABA" cx="99.61115" cy="130.19856" r="10.75"/>
				<path fill="#848484" d="M99.61115,119.69856c5.78973,0,10.5,4.71029,10.5,10.5c0,5.78972-4.71027,10.5-10.5,10.5
					s-10.5-4.71028-10.5-10.5C89.11115,124.40885,93.82141,119.69856,99.61115,119.69856 M99.61115,119.19856
					c-6.07513,0-11,4.92487-11,11c0,6.07513,4.92487,11,11,11s11-4.92487,11-11
					C110.61115,124.12344,105.68628,119.19856,99.61115,119.19856L99.61115,119.19856z"/>
			</g>
			<g>
				<g>
					<circle fill="#303030" cx="99.61115" cy="130.19856" r="7.97607"/>
					<path fill="#848484" d="M99.61115,122.47253c4.267,0,7.72604,3.45906,7.72604,7.72604
						c0,4.26697-3.45905,7.72604-7.72604,7.72604c-4.26697,0-7.72604-3.45909-7.72604-7.72604
						C91.8851,125.93159,95.34417,122.47253,99.61115,122.47253 M99.61115,121.97253c-4.53586,0-8.22604,3.6902-8.22604,8.22604
						c0,4.53583,3.69019,8.22604,8.22604,8.22604s8.22604-3.6902,8.22604-8.22604S104.147,121.97253,99.61115,121.97253
						L99.61115,121.97253z"/>
				</g>
				<g>
					<circle fill="#494949" cx="99.61115" cy="130.19856" r="7.47607"/>
					<path fill="#1E1E1E" d="M99.61115,122.97253c3.98444,0,7.22604,3.24159,7.22604,7.22604
						c0,3.98444-3.24161,7.22604-7.22604,7.22604s-7.22604-3.24159-7.22604-7.22604S95.62671,122.97253,99.61115,122.97253
						 M99.61115,122.47253c-4.26697,0-7.72604,3.45906-7.72604,7.72604c0,4.26697,3.45908,7.72604,7.72604,7.72604
						c4.267,0,7.72604-3.45909,7.72604-7.72604C107.33719,125.93159,103.87814,122.47253,99.61115,122.47253L99.61115,122.47253z"/>
				</g>
			</g>
			<circle stroke="#1E1E1E" stroke-width="0.5" stroke-miterlimit="10" cx="99.61115" cy="130.19856" r="4.53401"/>
		</g>
	</g>
</g>
</svg>
